<svg width="44" height="44" viewBox="0 0 44 44" fill="none" xmlns="http://www.w3.org/2000/svg">
<g id="Finderly/ logo">
<path id="Vector" d="M21.8 12C27.433 12 32 16.477 32 22C32 27.523 27.433 32 21.8 32C19.188 32 16.805 31.037 15 29.454" stroke="#FF6F61" stroke-width="4" stroke-linecap="round" stroke-linejoin="round"/>
<path id="Vector_2" d="M22 2C33.046 2 42 10.954 42 22C42 33.046 33.046 42 22 42C16.7989 42.007 11.801 39.9808 8.07302 36.354C6.1488 34.4918 4.61938 32.2611 3.57598 29.7949C2.53259 27.3288 1.99661 24.6778 2.00002 22C1.99323 16.844 3.98464 11.8859 7.55602 8.167" stroke="#FF6F61" stroke-width="4" stroke-linecap="round" stroke-linejoin="round"/>
<path id="Vector_3" d="M7.55591 8.16699L21.9999 22L8.07291 36.354" stroke="#FF6F61" stroke-width="4" stroke-linecap="round" stroke-linejoin="round"/>
</g>
</svg>
